<?xml version="1.0" encoding="utf-8"?>
<COLLADA xmlns="http://www.collada.org/2005/11/COLLADASchema" version="1.4.1" xmlns:xsi="http://www.w3.org/2001/XMLSchema-instance">
  <asset>
    <contributor>
      <author>Blender User</author>
      <authoring_tool>Blender 4.2.18 LTS commit date:2026-02-16, commit time:13:37, hash:d71e3422e438</authoring_tool>
    </contributor>
    <created>2026-04-12T17:20:31</created>
    <modified>2026-04-12T17:20:31</modified>
    <unit name="meter" meter="1"/>
    <up_axis>Z_UP</up_axis>
  </asset>
  <library_effects>
    <effect id="orange-effect">
      <profile_COMMON>
        <technique sid="common">
          <lambert>
            <emission>
              <color sid="emission">0 0 0 1</color>
            </emission>
            <diffuse>
              <color sid="diffuse">0.8001106 0.2737423 0.09918346 1</color>
            </diffuse>
            <index_of_refraction>
              <float sid="ior">1.5</float>
            </index_of_refraction>
          </lambert>
        </technique>
      </profile_COMMON>
    </effect>
  </library_effects>
  <library_images/>
  <library_materials>
    <material id="orange-material" name="orange">
      <instance_effect url="#orange-effect"/>
    </material>
  </library_materials>
  <library_geometries>
    <geometry id="Cube_007-mesh" name="Cube.007">
      <mesh>
        <source id="Cube_007-mesh-positions">
          <float_array id="Cube_007-mesh-positions-array" count="72">-1.36607 -1 3.926858 -1.36607 -1 5.926858 -1.36607 1 3.926858 -1.36607 1 5.926858 0.6339302 -1 3.926858 0.6339302 -1 5.926858 0.6339302 1 3.926858 0.6339302 1 5.926858 0.444759 -1 5.932071 0.6334382 -1 5.932071 0.444759 1 5.932071 0.6334382 1 5.932071 0.444759 -1 -15.26793 0.6334382 -1 -15.26793 0.444759 1 -15.26793 0.6334382 1 -15.26793 -0.440397 -1 4.782137 -0.2517178 -1 4.782137 -0.440397 1 4.782137 -0.2517178 1 4.782137 -0.440397 -1 -5.817863 -0.2517178 -1 -5.817863 -0.440397 1 -5.817863 -0.2517178 1 -5.817863</float_array>
          <technique_common>
            <accessor source="#Cube_007-mesh-positions-array" count="24" stride="3">
              <param name="X" type="float"/>
              <param name="Y" type="float"/>
              <param name="Z" type="float"/>
            </accessor>
          </technique_common>
        </source>
        <source id="Cube_007-mesh-normals">
          <float_array id="Cube_007-mesh-normals-array" count="108">-1 0 0 0 1 0 1 0 0 0 -1 0 0 0 -1 0 0 1 0 0 1 0 1 0 0 0 -1 0 -1 0 -1 0 0 1 0 0 0 0 1 0 1 0 0 0 -1 0 -1 0 -1 0 0 1 0 0 -1 0 0 0 1 0 1 0 0 0 -1 0 0 0 -1 0 0 1 0 0 1 0 1 0 0 0 -1 0 -1 0 -1 0 0 1 0 0 0 0 1 0 1 0 0 0 -1 0 -1 0 -1 0 0 1 0 0</float_array>
          <technique_common>
            <accessor source="#Cube_007-mesh-normals-array" count="36" stride="3">
              <param name="X" type="float"/>
              <param name="Y" type="float"/>
              <param name="Z" type="float"/>
            </accessor>
          </technique_common>
        </source>
        <source id="Cube_007-mesh-map-0">
          <float_array id="Cube_007-mesh-map-0-array" count="216">0.375 0 0.625 0.25 0.375 0.25 0.375 0.25 0.625 0.5 0.375 0.5 0.375 0.5 0.625 0.75 0.375 0.75 0.375 0.75 0.625 1 0.375 1 0.125 0.5 0.375 0.75 0.125 0.75 0.625 0.5 0.875 0.75 0.625 0.75 0.375 0 0.625 0.25 0.375 0.25 0.375 0.25 0.625 0.5 0.375 0.5 0.375 0.5 0.625 0.75 0.375 0.75 0.375 0.75 0.625 1 0.375 1 0.125 0.5 0.375 0.75 0.125 0.75 0.625 0.5 0.875 0.75 0.625 0.75 0.375 0 0.625 0.25 0.375 0.25 0.375 0.25 0.625 0.5 0.375 0.5 0.375 0.5 0.625 0.75 0.375 0.75 0.375 0.75 0.625 1 0.375 1 0.125 0.5 0.375 0.75 0.125 0.75 0.625 0.5 0.875 0.75 0.625 0.75 0.375 0 0.625 0 0.625 0.25 0.375 0.25 0.625 0.25 0.625 0.5 0.375 0.5 0.625 0.5 0.625 0.75 0.375 0.75 0.625 0.75 0.625 1 0.125 0.5 0.375 0.5 0.375 0.75 0.625 0.5 0.875 0.5 0.875 0.75 0.375 0 0.625 0 0.625 0.25 0.375 0.25 0.625 0.25 0.625 0.5 0.375 0.5 0.625 0.5 0.625 0.75 0.375 0.75 0.625 0.75 0.625 1 0.125 0.5 0.375 0.5 0.375 0.75 0.625 0.5 0.875 0.5 0.875 0.75 0.375 0 0.625 0 0.625 0.25 0.375 0.25 0.625 0.25 0.625 0.5 0.375 0.5 0.625 0.5 0.625 0.75 0.375 0.75 0.625 0.75 0.625 1 0.125 0.5 0.375 0.5 0.375 0.75 0.625 0.5 0.875 0.5 0.875 0.75</float_array>
          <technique_common>
            <accessor source="#Cube_007-mesh-map-0-array" count="108" stride="2">
              <param name="S" type="float"/>
              <param name="T" type="float"/>
            </accessor>
          </technique_common>
        </source>
        <vertices id="Cube_007-mesh-vertices">
          <input semantic="POSITION" source="#Cube_007-mesh-positions"/>
        </vertices>
        <triangles material="orange-material" count="36">
          <input semantic="VERTEX" source="#Cube_007-mesh-vertices" offset="0"/>
          <input semantic="NORMAL" source="#Cube_007-mesh-normals" offset="1"/>
          <input semantic="TEXCOORD" source="#Cube_007-mesh-map-0" offset="2" set="0"/>
          <p>0 0 0 3 0 1 2 0 2 2 1 3 7 1 4 6 1 5 6 2 6 5 2 7 4 2 8 4 3 9 1 3 10 0 3 11 2 4 12 4 4 13 0 4 14 7 5 15 1 5 16 5 5 17 8 6 18 11 6 19 10 6 20 10 7 21 15 7 22 14 7 23 14 8 24 13 8 25 12 8 26 12 9 27 9 9 28 8 9 29 10 10 30 12 10 31 8 10 32 15 11 33 9 11 34 13 11 35 16 12 36 19 12 37 18 12 38 18 13 39 23 13 40 22 13 41 22 14 42 21 14 43 20 14 44 20 15 45 17 15 46 16 15 47 18 16 48 20 16 49 16 16 50 23 17 51 17 17 52 21 17 53 0 18 54 1 18 55 3 18 56 2 19 57 3 19 58 7 19 59 6 20 60 7 20 61 5 20 62 4 21 63 5 21 64 1 21 65 2 22 66 6 22 67 4 22 68 7 23 69 3 23 70 1 23 71 8 24 72 9 24 73 11 24 74 10 25 75 11 25 76 15 25 77 14 26 78 15 26 79 13 26 80 12 27 81 13 27 82 9 27 83 10 28 84 14 28 85 12 28 86 15 29 87 11 29 88 9 29 89 16 30 90 17 30 91 19 30 92 18 31 93 19 31 94 23 31 95 22 32 96 23 32 97 21 32 98 20 33 99 21 33 100 17 33 101 18 34 102 22 34 103 20 34 104 23 35 105 19 35 106 17 35 107</p>
        </triangles>
      </mesh>
    </geometry>
  </library_geometries>
  <library_visual_scenes>
    <visual_scene id="Scene" name="Scene">
      <node id="tmp_export_Cube_007" name="tmp_export_Cube.007" type="NODE">
        <matrix sid="transform">1 0 0 0 0 1 0 0 0 0 1 0 0 0 0 1</matrix>
        <instance_geometry url="#Cube_007-mesh" name="tmp_export_Cube.007">
          <bind_material>
            <technique_common>
              <instance_material symbol="orange-material" target="#orange-material">
                <bind_vertex_input semantic="UVMap" input_semantic="TEXCOORD" input_set="0"/>
              </instance_material>
            </technique_common>
          </bind_material>
        </instance_geometry>
      </node>
    </visual_scene>
  </library_visual_scenes>
  <scene>
    <instance_visual_scene url="#Scene"/>
  </scene>
</COLLADA>